{
  "accessors": [
    {
      "bufferView": 2,
      "componentType": 5126,
      "count": 1386,
      "max": [
        57.495800018310547,
        98.725303649902344,
        15.63029956817627
      ],
      "min": [
        33.114601135253906,
        -184.11579895019531,
        -1.4364999532699585
      ],
      "type": "VEC3"
    },
    {
      "bufferView": 2,
      "byteOffset": 16632,
      "componentType": 5126,
      "count": 1386,
      "max": [
        0.99589985609054565,
        0.99692785739898682,
        0.59971076250076294
      ],
      "min": [
        -0.99358725547790527,
        -0.9654700756072998,
        -0.90871202945709229
      ],
      "type": "VEC3"
    },
    {
      "bufferView": 3,
      "componentType": 5126,
      "count": 1386,
      "max": [
        0.78563022613525391,
        0.83303588628768921,
        -0.11804068088531494,
        1
      ],
      "min": [
        -0.83807194232940674,
        -0.97770905494689941,
        -0.99994724988937378,
        1
      ],
      "type": "VEC4"
    },
    {
      "bufferView": 1,
      "componentType": 5126,
      "count": 1386,
      "max": [
        1,
        1
      ],
      "min": [
        0,
        0
      ],
      "type": "VEC2"
    },
    {
      "bufferView": 0,
      "componentType": 5125,
      "count": 3234,
      "max": [
        1385
      ],
      "min": [
        0
      ],
      "type": "SCALAR"
    },
    {
      "bufferView": 2,
      "byteOffset": 33264,
      "componentType": 5126,
      "count": 4275,
      "max": [
        58.459400177001953,
        100.95590209960938,
        30.753799438476562
      ],
      "min": [
        34.209098815917969,
        -187.17430114746094,
        -2.4019999504089355
      ],
      "type": "VEC3"
    },
    {
      "bufferView": 2,
      "byteOffset": 84564,
      "componentType": 5126,
      "count": 4275,
      "max": [
        0.99324244260787964,
        0.99675917625427246,
        0.83830183744430542
      ],
      "min": [
        -0.99882906675338745,
        -0.99703478813171387,
        -0.91612529754638672
      ],
      "type": "VEC3"
    },
    {
      "bufferView": 3,
      "byteOffset": 22176,
      "componentType": 5126,
      "count": 4275,
      "max": [
        0.98038607835769653,
        0.97249710559844971,
        -0.11800152063369751,
        1
      ],
      "min": [
        -0.97001612186431885,
        -0.8778722882270813,
        -0.99998229742050171,
        1
      ],
      "type": "VEC4"
    },
    {
      "bufferView": 1,
      "byteOffset": 11088,
      "componentType": 5126,
      "count": 4275,
      "max": [
        1,
        1
      ],
      "min": [
        0,
        0
      ],
      "type": "VEC2"
    },
    {
      "bufferView": 0,
      "byteOffset": 12936,
      "componentType": 5125,
      "count": 9975,
      "max": [
        4274
      ],
      "min": [
        0
      ],
      "type": "SCALAR"
    },
    {
      "bufferView": 2,
      "byteOffset": 135864,
      "componentType": 5126,
      "count": 666,
      "max": [
        55.867599487304688,
        91.658699035644531,
        30.753799438476562
      ],
      "min": [
        32.388999938964844,
        -156.29049682617188,
        -1.1892999410629272
      ],
      "type": "VEC3"
    },
    {
      "bufferView": 2,
      "byteOffset": 143856,
      "componentType": 5126,
      "count": 666,
      "max": [
        0.99484461545944214,
        0.99718397855758667,
        0.59971076250076294
      ],
      "min": [
        -0.99631398916244507,
        -0.9654700756072998,
        -0.92534035444259644
      ],
      "type": "VEC3"
    },
    {
      "bufferView": 3,
      "byteOffset": 90576,
      "componentType": 5126,
      "count": 666,
      "max": [
        0.83400505781173706,
        0.70710444450378418,
        -0.33681902289390564,
        1
      ],
      "min": [
        -0.84530150890350342,
        -0.72239893674850464,
        -0.99994724988937378,
        1
      ],
      "type": "VEC4"
    },
    {
      "bufferView": 1,
      "byteOffset": 45288,
      "componentType": 5126,
      "count": 666,
      "max": [
        1,
        1
      ],
      "min": [
        0,
        0
      ],
      "type": "VEC2"
    },
    {
      "bufferView": 0,
      "byteOffset": 52836,
      "componentType": 5125,
      "count": 1554,
      "max": [
        665
      ],
      "min": [
        0
      ],
      "type": "SCALAR"
    }
  ],
  "asset": {
    "extras": {
      "author": "juhyt80 (https://sketchfab.com/juhyt80)",
      "license": "CC-BY-4.0 (http://creativecommons.org/licenses/by/4.0/)",
      "source": "https://sketchfab.com/models/5194ac6d21c242e188c2fbbe0ac122e6",
      "title": "Low poly grass pack"
    },
    "generator": "Sketchfab-3.43.3",
    "version": "2.0"
  },
  "bufferViews": [
    {
      "buffer": 0,
      "byteLength": 59052,
      "byteOffset": 0,
      "name": "floatBufferViews",
      "target": 34963
    },
    {
      "buffer": 0,
      "byteLength": 50616,
      "byteOffset": 59052,
      "byteStride": 8,
      "name": "floatBufferViews",
      "target": 34962
    },
    {
      "buffer": 0,
      "byteLength": 151848,
      "byteOffset": 109668,
      "byteStride": 12,
      "name": "floatBufferViews",
      "target": 34962
    },
    {
      "buffer": 0,
      "byteLength": 101232,
      "byteOffset": 261516,
      "byteStride": 16,
      "name": "floatBufferViews",
      "target": 34962
    }
  ],
  "buffers": [
    {
      "byteLength": 362748,
      "uri": "scene.bin"
    }
  ],
  "materials": [
    {
      "doubleSided": true,
      "emissiveFactor": [
        0,
        0,
        0
      ],
      "name": "material",
      "pbrMetallicRoughness": {
        "baseColorFactor": [
          0.0038999999999999998,
          0.30980000000000002,
          0,
          1
        ],
        "metallicFactor": 0,
        "roughnessFactor": 1
      }
    },
    {
      "doubleSided": true,
      "emissiveFactor": [
        0,
        0,
        0
      ],
      "name": "material_2",
      "pbrMetallicRoughness": {
        "baseColorFactor": [
          0.40389999999999998,
          0.55289999999999995,
          0.0038999999999999998,
          1
        ],
        "metallicFactor": 0,
        "roughnessFactor": 1
      }
    },
    {
      "doubleSided": true,
      "emissiveFactor": [
        0,
        0,
        0
      ],
      "name": "material_3",
      "pbrMetallicRoughness": {
        "baseColorFactor": [
          0,
          0.15290000000000001,
          0,
          1
        ],
        "metallicFactor": 0,
        "roughnessFactor": 1
      }
    }
  ],
  "meshes": [
    {
      "primitives": [
        {
          "attributes": {
            "NORMAL": 1,
            "POSITION": 0,
            "TANGENT": 2,
            "TEXCOORD_0": 3
          },
          "indices": 4,
          "material": 0,
          "mode": 4
        }
      ]
    },
    {
      "primitives": [
        {
          "attributes": {
            "NORMAL": 6,
            "POSITION": 5,
            "TANGENT": 7,
            "TEXCOORD_0": 8
          },
          "indices": 9,
          "material": 1,
          "mode": 4
        }
      ]
    },
    {
      "primitives": [
        {
          "attributes": {
            "NORMAL": 11,
            "POSITION": 10,
            "TANGENT": 12,
            "TEXCOORD_0": 13
          },
          "indices": 14,
          "material": 2,
          "mode": 4
        }
      ]
    }
  ],
  "nodes": [
    {
      "children": [
        1
      ],
      "name": "RootNode (gltf orientation matrix)",
      "rotation": [
        -0.70710678118654746,
        -0,
        -0,
        0.70710678118654757
      ]
    },
    {
      "children": [
        2
      ],
      "name": "RootNode (model correction matrix)"
    },
    {
      "children": [
        3,
        4,
        5
      ],
      "name": "grass.obj.cleaner.materialmerger.gles"
    },
    {
      "mesh": 0,
      "name": ""
    },
    {
      "mesh": 1,
      "name": ""
    },
    {
      "mesh": 2,
      "name": ""
    }
  ],
  "scene": 0,
  "scenes": [
    {
      "name": "OSG_Scene",
      "nodes": [
        0
      ]
    }
  ]
}

